<?xml version="1.0" encoding="UTF-8"?>
<svg xmlns="http://www.w3.org/2000/svg" xmlns:xlink="http://www.w3.org/1999/xlink" viewBox="0 0 100 100" width="100px" height="100px">
<g id="surface986027">
<path style=" stroke:none;fill-rule:nonzero;fill:#9186b9;fill-opacity:1;" d="M 80 13.332031 L 20 13.332031 C 16.316406 13.332031 13.332031 16.316406 13.332031 20 L 13.332031 80 C 13.332031 83.683594 16.316406 86.667969 20 86.667969 L 80 86.667969 C 83.683594 86.667969 86.667969 83.683594 86.667969 80 L 86.667969 20 C 86.667969 16.316406 83.683594 13.332031 80 13.332031 Z M 50 67.933594 C 50 73.855469 46.367188 77.175781 40.332031 77.175781 C 34.375 77.175781 30.578125 73.691406 30.578125 68.058594 L 37.035156 68.058594 C 37.050781 70.148438 38.296875 71.46875 40.222656 71.46875 C 42.203125 71.46875 43.265625 70.222656 43.265625 67.875 L 43.265625 49.992188 L 50 49.992188 Z M 68.269531 77.175781 C 61.574219 77.175781 57.359375 74.023438 57.246094 68.921875 L 63.667969 68.921875 C 63.828125 70.851562 65.753906 72.078125 68.542969 72.078125 C 71.058594 72.078125 72.785156 70.867188 72.785156 69.125 C 72.785156 67.65625 71.625 66.867188 68.601562 66.261719 L 65.117188 65.566406 C 60.273438 64.648438 57.78125 62.011719 57.78125 57.847656 C 57.78125 52.671875 61.925781 49.28125 68.308594 49.28125 C 74.507812 49.28125 78.796875 52.636719 78.90625 57.535156 L 72.691406 57.535156 C 72.542969 55.664062 70.761719 54.359375 68.394531 54.359375 C 66.03125 54.359375 64.472656 55.480469 64.472656 57.238281 C 64.472656 58.691406 65.648438 59.535156 68.433594 60.082031 L 71.839844 60.742188 C 77.070312 61.753906 79.417969 64.117188 79.417969 68.316406 C 79.421875 73.839844 75.203125 77.175781 68.269531 77.175781 Z M 68.269531 77.175781 "/>
</g>
</svg>
