<?xml version="1.0" encoding="UTF-8"?>
<svg xmlns="http://www.w3.org/2000/svg" xmlns:xlink="http://www.w3.org/1999/xlink" viewBox="0 0 100 100" width="100px" height="100px">
<g id="surface5877529">
<path style=" stroke:none;fill-rule:nonzero;fill:#9186b9;fill-opacity:1;" d="M 91.078125 16.011719 L 75.246094 10.597656 C 74.195312 10.238281 73.023438 10.425781 72.140625 11.101562 L 36.445312 38.46875 L 18.390625 27.566406 C 17.464844 27.003906 16.324219 26.925781 15.328125 27.363281 L 8.664062 30.28125 C 7.449219 30.808594 6.667969 32.011719 6.667969 33.332031 L 6.667969 66.667969 C 6.667969 67.988281 7.449219 69.191406 8.664062 69.71875 L 15.328125 72.636719 C 16.320312 73.074219 17.460938 72.992188 18.390625 72.433594 L 36.441406 61.53125 L 72.136719 88.898438 C 72.726562 89.351562 73.441406 89.582031 74.164062 89.582031 C 74.527344 89.582031 74.890625 89.523438 75.242188 89.402344 L 91.078125 83.988281 C 92.425781 83.527344 93.332031 82.261719 93.332031 80.832031 L 93.332031 19.167969 C 93.332031 17.738281 92.425781 16.472656 91.078125 16.011719 Z M 20 55.886719 L 20 44.113281 L 29.742188 50 Z M 73.332031 65.722656 L 50.125 50 L 73.332031 34.277344 Z M 73.332031 65.722656 "/>
</g>
</svg>
