<?xml version="1.0" encoding="UTF-8"?>
<svg xmlns="http://www.w3.org/2000/svg" xmlns:xlink="http://www.w3.org/1999/xlink" viewBox="0 0 100 100" width="100px" height="100px">
<g id="surface984966">
<path style=" stroke:none;fill-rule:nonzero;fill:#9186b9;fill-opacity:1;" d="M 84.761719 11.109375 C 84.125 10.402344 83.222656 10 82.277344 10 L 17.722656 10 C 16.777344 10 15.875 10.402344 15.238281 11.109375 C 14.605469 11.816406 14.308594 12.761719 14.410156 13.699219 L 21.75 79.777344 C 21.898438 81.121094 22.847656 82.242188 24.148438 82.613281 L 49.078125 89.738281 C 49.378906 89.824219 49.691406 89.867188 49.996094 89.867188 C 50.304688 89.867188 50.613281 89.824219 50.914062 89.738281 L 75.847656 82.613281 C 77.148438 82.242188 78.09375 81.121094 78.242188 79.777344 L 85.585938 13.699219 C 85.691406 12.761719 85.394531 11.816406 84.761719 11.109375 Z M 68.761719 34.765625 L 38.996094 34.765625 L 39.703125 43.238281 L 68.046875 43.238281 L 65.921875 68.273438 L 50.011719 73.332031 L 49.851562 73.285156 L 34.121094 68.265625 L 33.261719 58.066406 L 40.964844 58.066406 L 41.304688 62.03125 L 50.09375 63.964844 L 58.730469 62.027344 L 59.648438 51.316406 L 32.679688 51.316406 L 30.59375 26.667969 L 69.457031 26.667969 Z M 68.761719 34.765625 "/>
</g>
</svg>
